<svg xmlns="http://www.w3.org/2000/svg" xmlns:xlink="http://www.w3.org/1999/xlink" width="500" zoomAndPan="magnify" viewBox="0 0 375 374.999991" height="500" preserveAspectRatio="xMidYMid meet" version="1.2"><defs/><g id="662af59b9b"><g style="fill:#ffffff;fill-opacity:1;"><g transform="translate(43.616805, 239.153077)"><path style="stroke:none" d="M 32.4375 1.09375 C 12.550781 1.09375 2.609375 -8.984375 2.609375 -29.140625 L 2.75 -37.109375 L 26.796875 -37.109375 L 26.9375 -25.296875 C 26.9375 -22.910156 27.394531 -21.097656 28.3125 -19.859375 C 29.226562 -18.617188 30.738281 -18 32.84375 -18 C 36.050781 -18 37.65625 -20.613281 37.65625 -25.84375 C 37.65625 -29.6875 36.898438 -32.707031 35.390625 -34.90625 C 33.878906 -37.113281 31.472656 -39.453125 28.171875 -41.921875 L 15.390625 -51.8125 C 10.992188 -55.207031 7.832031 -58.710938 5.90625 -62.328125 C 3.988281 -65.953125 3.03125 -71.0625 3.03125 -77.65625 C 3.03125 -82.789062 4.378906 -87.164062 7.078125 -90.78125 C 9.785156 -94.40625 13.382812 -97.132812 17.875 -98.96875 C 22.363281 -100.800781 27.351562 -101.71875 32.84375 -101.71875 C 52.363281 -101.71875 62.125 -92.003906 62.125 -72.578125 L 62.125 -70.65625 L 37.25 -70.65625 L 37.25 -74.5 C 37.25 -76.882812 36.859375 -78.921875 36.078125 -80.609375 C 35.296875 -82.304688 33.988281 -83.15625 32.15625 -83.15625 C 30.507812 -83.15625 29.25 -82.671875 28.375 -81.703125 C 27.507812 -80.742188 27.078125 -79.441406 27.078125 -77.796875 C 27.078125 -74.128906 28.5 -71.289062 31.34375 -69.28125 L 46.1875 -58.421875 C 51.5 -54.472656 55.570312 -50.1875 58.40625 -45.5625 C 61.25 -40.9375 62.671875 -35.097656 62.671875 -28.046875 C 62.671875 -18.691406 60.015625 -11.492188 54.703125 -6.453125 C 49.390625 -1.421875 41.96875 1.09375 32.4375 1.09375 Z M 32.4375 1.09375 "/></g></g><g style="fill:#ffffff;fill-opacity:1;"><g transform="translate(108.905207, 239.153077)"><path style="stroke:none" d="M 34.09375 1.09375 C 14.019531 1.09375 3.984375 -9.304688 3.984375 -30.109375 L 3.984375 -70.515625 C 3.984375 -80.046875 6.660156 -87.628906 12.015625 -93.265625 C 17.378906 -98.898438 24.738281 -101.71875 34.09375 -101.71875 C 43.4375 -101.71875 50.785156 -98.898438 56.140625 -93.265625 C 61.503906 -87.628906 64.1875 -80.046875 64.1875 -70.515625 L 64.1875 -30.109375 C 64.1875 -9.304688 54.15625 1.09375 34.09375 1.09375 Z M 34.09375 -17.453125 C 36.007812 -17.453125 37.425781 -18.140625 38.34375 -19.515625 C 39.257812 -20.890625 39.71875 -22.769531 39.71875 -25.15625 L 39.71875 -74.359375 C 39.71875 -80.222656 37.84375 -83.15625 34.09375 -83.15625 C 30.332031 -83.15625 28.453125 -80.222656 28.453125 -74.359375 L 28.453125 -25.15625 C 28.453125 -22.769531 28.910156 -20.890625 29.828125 -19.515625 C 30.742188 -18.140625 32.164062 -17.453125 34.09375 -17.453125 Z M 34.09375 -17.453125 "/></g></g><g style="fill:#2196f3;fill-opacity:1;"><g transform="translate(177.222269, 239.153077)"><path style="stroke:none" d="M 32.71875 1.09375 C 24.101562 1.09375 17.207031 -1.609375 12.03125 -7.015625 C 6.851562 -12.421875 4.265625 -19.84375 4.265625 -29.28125 L 4.265625 -83.703125 C 4.265625 -95.429688 6.597656 -104.273438 11.265625 -110.234375 C 15.941406 -116.191406 23.273438 -119.171875 33.265625 -119.171875 C 41.972656 -119.171875 48.984375 -116.785156 54.296875 -112.015625 C 59.609375 -107.253906 62.265625 -100.382812 62.265625 -91.40625 L 62.265625 -71.0625 L 38.765625 -71.0625 L 38.765625 -88.515625 C 38.765625 -91.910156 38.347656 -94.25 37.515625 -95.53125 C 36.691406 -96.8125 35.273438 -97.453125 33.265625 -97.453125 C 31.160156 -97.453125 29.71875 -96.71875 28.9375 -95.25 C 28.15625 -93.789062 27.765625 -91.640625 27.765625 -88.796875 L 27.765625 -29.546875 C 27.765625 -26.429688 28.222656 -24.164062 29.140625 -22.75 C 30.054688 -21.332031 31.429688 -20.625 33.265625 -20.625 C 36.929688 -20.625 38.765625 -23.597656 38.765625 -29.546875 L 38.765625 -50.859375 L 62.546875 -50.859375 L 62.546875 -28.59375 C 62.546875 -8.800781 52.601562 1.09375 32.71875 1.09375 Z M 32.71875 1.09375 "/></g></g><g style="fill:#2196f3;fill-opacity:1;"><g transform="translate(242.373216, 239.153077)"><path style="stroke:none" d="M 4.125 0 L 4.125 -118.078125 L 26.9375 -118.078125 L 26.9375 0 Z M 4.125 0 "/></g></g><g style="fill:#2196f3;fill-opacity:1;"><g transform="translate(273.574202, 239.153077)"><path style="stroke:none" d="M 33.40625 1.09375 C 23.875 1.09375 16.632812 -1.8125 11.6875 -7.625 C 6.738281 -13.445312 4.265625 -21.625 4.265625 -32.15625 L 4.265625 -88.375 C 4.265625 -98.550781 6.738281 -106.226562 11.6875 -111.40625 C 16.632812 -116.582031 23.875 -119.171875 33.40625 -119.171875 C 42.9375 -119.171875 50.175781 -116.582031 55.125 -111.40625 C 60.070312 -106.226562 62.546875 -98.550781 62.546875 -88.375 L 62.546875 -32.15625 C 62.546875 -21.53125 60.070312 -13.332031 55.125 -7.5625 C 50.175781 -1.789062 42.9375 1.09375 33.40625 1.09375 Z M 33.40625 -20.625 C 35.507812 -20.625 36.925781 -21.535156 37.65625 -23.359375 C 38.394531 -25.191406 38.765625 -27.757812 38.765625 -31.0625 L 38.765625 -88.796875 C 38.765625 -91.359375 38.421875 -93.441406 37.734375 -95.046875 C 37.046875 -96.648438 35.644531 -97.453125 33.53125 -97.453125 C 29.59375 -97.453125 27.625 -94.472656 27.625 -88.515625 L 27.625 -30.921875 C 27.625 -27.535156 28.035156 -24.972656 28.859375 -23.234375 C 29.691406 -21.492188 31.207031 -20.625 33.40625 -20.625 Z M 33.40625 -20.625 "/></g></g></g></svg>